<svg width="126" height="52" viewBox="0 0 126 52" fill="none" xmlns="http://www.w3.org/2000/svg">
<rect x="20.047" width="11.7673" height="31.4648" rx="5.88366" fill="#009BD3"/>
<rect x="0.349365" y="31.4648" width="11.7673" height="31.4648" rx="5.88366" transform="rotate(-90 0.349365 31.4648)" fill="#009BD3"/>
<rect x="31.8142" y="50.679" width="11.7673" height="31.4648" rx="5.88366" transform="rotate(-179.862 31.8142 50.679)" fill="#59BA49" style="mix-blend-mode:darken"/>
<rect x="51.5878" y="19.2617" width="11.7673" height="31.4648" rx="5.88366" transform="rotate(90.1381 51.5878 19.2617)" fill="#59BA49" style="mix-blend-mode:darken"/>
<path d="M73.8406 23.2469C72.1445 23.2469 70.8705 22.771 70.0189 21.8191C69.1744 20.8673 68.7521 19.5146 68.7521 17.7612V14.5084C68.7521 12.755 69.1744 11.4059 70.0189 10.4612C70.8634 9.50936 72.1301 9.03343 73.8192 9.03343C74.3631 9.03343 74.8569 9.08353 75.3006 9.18373C75.7515 9.28392 76.1523 9.41275 76.503 9.5702C76.8537 9.72765 77.1507 9.89225 77.394 10.064L77.5443 11.7172C77.122 11.4167 76.6246 11.1554 76.0521 10.9336C75.4867 10.7046 74.8211 10.59 74.0553 10.59C72.9031 10.59 72.0335 10.9336 71.4467 11.6206C70.8598 12.3005 70.5664 13.2703 70.5664 14.5299V17.6968C70.5664 18.9492 70.8634 19.9226 71.4574 20.6168C72.0514 21.3038 72.9389 21.6474 74.1197 21.6474C74.8784 21.6474 75.5475 21.5364 76.1272 21.3146C76.7141 21.0927 77.2222 20.8207 77.6516 20.4987L77.5014 22.1949C77.258 22.3666 76.9574 22.5348 76.5996 22.6994C76.2418 22.864 75.8302 22.9964 75.365 23.0966C74.907 23.1968 74.3989 23.2469 73.8406 23.2469ZM79.4951 23V8.77579H81.2235V23H79.4951ZM83.7087 23V12.5224H85.4478V23H83.7087ZM85.0828 8.33564H86.8648V8.34638L85.319 11.2234H83.8912V11.2127L85.0828 8.33564ZM94.8373 23V16.4837C94.8373 15.9183 94.7586 15.4316 94.6011 15.0237C94.4508 14.6158 94.2003 14.3009 93.8496 14.079C93.5061 13.85 93.0338 13.7355 92.4326 13.7355C91.8815 13.7355 91.402 13.8392 90.9941 14.0468C90.5933 14.2543 90.2676 14.537 90.0172 14.8949C89.7667 15.2456 89.5913 15.6463 89.4911 16.0972L89.1798 14.8627H89.5555C89.67 14.3903 89.8704 13.9609 90.1567 13.5744C90.443 13.1808 90.8259 12.8695 91.3054 12.6405C91.792 12.4043 92.3861 12.2862 93.0874 12.2862C93.9176 12.2862 94.5868 12.4437 95.0949 12.7586C95.6102 13.0735 95.986 13.5279 96.2221 14.1219C96.4583 14.7088 96.5764 15.4316 96.5764 16.2905V23H94.8373ZM87.8272 23V12.5224H89.5663L89.4911 15.0344L89.5663 15.1311V23H87.8272ZM98.8352 23V12.5224H100.574V23H98.8352ZM99.7047 10.8047C99.3469 10.8047 99.0785 10.7117 98.8996 10.5256C98.7278 10.3324 98.6419 10.0712 98.6419 9.74196V9.68828C98.6419 9.35191 98.7278 9.09069 98.8996 8.90461C99.0785 8.71853 99.3469 8.62549 99.7047 8.62549C100.063 8.62549 100.331 8.71853 100.51 8.90461C100.689 9.09069 100.778 9.35191 100.778 9.68828V9.74196C100.778 10.0783 100.689 10.3396 100.51 10.5256C100.331 10.7117 100.063 10.8047 99.7047 10.8047ZM107.022 23.2362C105.519 23.2362 104.399 22.8318 103.662 22.0231C102.932 21.2072 102.567 20.055 102.567 18.5663V16.9346C102.567 15.4388 102.935 14.2901 103.672 13.4886C104.41 12.6798 105.526 12.2755 107.022 12.2755C107.466 12.2755 107.87 12.3184 108.235 12.4043C108.6 12.483 108.926 12.5904 109.212 12.7264C109.505 12.8552 109.752 12.9912 109.953 13.1343L110.103 14.648C109.766 14.3903 109.366 14.172 108.9 13.9931C108.442 13.8142 107.902 13.7247 107.279 13.7247C106.277 13.7247 105.53 14.0039 105.036 14.5621C104.549 15.1132 104.306 15.9183 104.306 16.9775V18.5234C104.306 19.5611 104.549 20.3591 105.036 20.9174C105.53 21.4756 106.277 21.7547 107.279 21.7547C107.924 21.7547 108.478 21.6652 108.943 21.4863C109.416 21.3074 109.834 21.0891 110.199 20.8315L110.038 22.3666C109.724 22.5813 109.312 22.7817 108.804 22.9678C108.296 23.1467 107.702 23.2362 107.022 23.2362ZM118.038 23L118.113 20.4557L118.049 20.1874V16.8487L118.06 16.2368C118.06 15.3851 117.841 14.7553 117.405 14.3474C116.975 13.9394 116.292 13.7355 115.354 13.7355C114.603 13.7355 113.912 13.8428 113.282 14.0575C112.66 14.2722 112.105 14.5227 111.618 14.809L111.78 13.3275C112.051 13.1629 112.374 13.0019 112.746 12.8444C113.125 12.6798 113.554 12.5439 114.034 12.4365C114.521 12.3292 115.054 12.2755 115.633 12.2755C116.385 12.2755 117.022 12.3685 117.544 12.5546C118.074 12.7335 118.5 12.9947 118.822 13.3383C119.151 13.6818 119.391 14.0969 119.541 14.5836C119.691 15.0702 119.767 15.6141 119.767 16.2153V23H118.038ZM114.431 23.2254C113.393 23.2254 112.595 22.975 112.037 22.474C111.486 21.9658 111.211 21.243 111.211 20.3055V19.9941C111.211 19.028 111.508 18.3087 112.102 17.8363C112.703 17.3568 113.655 17.024 114.957 16.838L118.274 16.3656L118.371 17.6324L115.172 18.094C114.37 18.2085 113.798 18.4053 113.454 18.6844C113.111 18.9564 112.939 19.3607 112.939 19.8975V20.0693C112.939 20.6204 113.107 21.0426 113.443 21.336C113.787 21.6295 114.299 21.7762 114.979 21.7762C115.58 21.7762 116.095 21.6724 116.525 21.4649C116.954 21.2573 117.301 20.9782 117.566 20.6275C117.831 20.2768 118.01 19.8868 118.103 19.4574L118.371 20.6382H118.038C117.938 21.0963 117.748 21.5221 117.469 21.9157C117.197 22.3094 116.814 22.6278 116.321 22.8712C115.827 23.1074 115.197 23.2254 114.431 23.2254Z" fill="#009B49"/>
<path d="M66.7848 40.5421L63.1671 26.8225H67.1713L69.5653 37.6651H69.8229L72.2276 26.8225H76.2211L72.6141 40.5421H66.7848ZM77.5645 40.5421V29.9679H81.3648V40.5421H77.5645ZM79.4647 29.2057C78.7705 29.2057 78.2659 29.0518 77.951 28.7441C77.6361 28.4292 77.4787 28.0069 77.4787 27.4773V27.3914C77.4787 26.8618 77.6361 26.4431 77.951 26.1354C78.2659 25.8205 78.7705 25.6631 79.4647 25.6631C80.1517 25.6631 80.6527 25.8205 80.9676 26.1354C81.2897 26.4431 81.4507 26.8618 81.4507 27.3914V27.4773C81.4507 28.0141 81.2897 28.4363 80.9676 28.7441C80.6527 29.0518 80.1517 29.2057 79.4647 29.2057ZM87.9038 40.789C86.9233 40.789 86.1432 40.6423 85.5635 40.3489C84.9909 40.0483 84.5794 39.6046 84.3289 39.0177C84.0856 38.4308 83.9639 37.708 83.9639 36.8492V31.181H87.732V36.2051C87.732 36.6631 87.8358 36.9995 88.0433 37.2142C88.2509 37.4217 88.6588 37.5255 89.2671 37.5255C89.5964 37.5255 89.922 37.4897 90.2441 37.4182C90.5733 37.3394 90.8703 37.25 91.1351 37.1498L90.813 40.263C90.4409 40.4204 90.0115 40.5457 89.5248 40.6387C89.0381 40.7389 88.4978 40.789 87.9038 40.789ZM82.6435 32.9416V29.9679H91.0277L90.7057 32.9416H82.6435ZM84.0176 30.2255L84.0069 27.5739L87.7535 27.2411L87.6247 30.2255H84.0176ZM98.7033 40.5421L98.8106 37.8368L98.7355 37.7402V34.4552L98.7033 34.0688C98.7033 33.5749 98.5422 33.2135 98.2202 32.9845C97.9053 32.7483 97.3649 32.6302 96.5992 32.6302C95.9049 32.6302 95.2358 32.7125 94.5917 32.8771C93.9547 33.0417 93.3428 33.2314 92.7559 33.4461L93.0673 30.5583C93.4251 30.4009 93.8223 30.2577 94.2589 30.1289C94.6954 29.9929 95.1714 29.8856 95.6867 29.8069C96.202 29.7281 96.7495 29.6888 97.3292 29.6888C98.3096 29.6888 99.1255 29.8033 99.7768 30.0323C100.435 30.2542 100.958 30.5726 101.344 30.9877C101.731 31.3957 102.006 31.8823 102.171 32.4477C102.343 33.0131 102.428 33.6358 102.428 34.3157V40.5421H98.7033ZM95.429 40.7998C94.3698 40.7998 93.5682 40.5314 93.0243 39.9946C92.4876 39.4507 92.2192 38.6813 92.2192 37.6865V37.4182C92.2192 36.3589 92.5412 35.5788 93.1853 35.0779C93.8366 34.5769 94.8744 34.2369 96.2986 34.058L98.9931 33.7145L99.2186 35.883L96.932 36.2158C96.5169 36.2731 96.227 36.3733 96.0624 36.5164C95.9049 36.6524 95.8262 36.8563 95.8262 37.1283V37.1712C95.8262 37.4217 95.9085 37.6257 96.0731 37.7832C96.2449 37.9406 96.5276 38.0193 96.9212 38.0193C97.2504 38.0193 97.5331 37.9764 97.7693 37.8905C98.0126 37.7975 98.213 37.6758 98.3705 37.5255C98.5351 37.3752 98.6639 37.2106 98.7569 37.0317L99.2937 38.3199H98.6818C98.5744 38.7994 98.4027 39.2253 98.1665 39.5974C97.9375 39.9696 97.6047 40.263 97.1681 40.4777C96.7316 40.6924 96.1519 40.7998 95.429 40.7998ZM104.481 40.5421V26.3823H108.281V40.5421H104.481ZM110.461 40.5421V29.9679H114.262V40.5421H110.461ZM112.362 29.2057C111.667 29.2057 111.163 29.0518 110.848 28.7441C110.533 28.4292 110.376 28.0069 110.376 27.4773V27.3914C110.376 26.8618 110.533 26.4431 110.848 26.1354C111.163 25.8205 111.667 25.6631 112.362 25.6631C113.049 25.6631 113.55 25.8205 113.864 26.1354C114.187 26.4431 114.348 26.8618 114.348 27.3914V27.4773C114.348 28.0141 114.187 28.4363 113.864 28.7441C113.55 29.0518 113.049 29.2057 112.362 29.2057ZM120.36 40.8105C119.523 40.8105 118.761 40.7425 118.074 40.6065C117.387 40.4705 116.793 40.3095 116.292 40.1234L115.98 36.9995C116.539 37.2142 117.158 37.411 117.838 37.5899C118.525 37.7617 119.255 37.8476 120.028 37.8476C120.593 37.8476 120.98 37.801 121.187 37.708C121.402 37.615 121.509 37.4647 121.509 37.2571V37.2357C121.509 37.0782 121.448 36.953 121.327 36.8599C121.205 36.7669 120.99 36.681 120.683 36.6023C120.382 36.5164 119.963 36.4126 119.427 36.291C118.546 36.0834 117.848 35.8365 117.333 35.5502C116.818 35.2568 116.449 34.9025 116.227 34.4874C116.006 34.0723 115.895 33.5785 115.895 33.006V32.9201C115.895 31.8322 116.285 31.0235 117.065 30.4939C117.852 29.9572 118.997 29.6888 120.5 29.6888C121.309 29.6888 122.046 29.7603 122.711 29.9035C123.384 30.0395 123.95 30.2076 124.408 30.408L124.719 33.3173C124.197 33.1097 123.613 32.938 122.969 32.802C122.325 32.6589 121.667 32.5873 120.994 32.5873C120.607 32.5873 120.307 32.6088 120.092 32.6517C119.885 32.6875 119.741 32.7447 119.663 32.8235C119.584 32.9022 119.545 32.9988 119.545 33.1133V33.1348C119.545 33.2636 119.595 33.3745 119.695 33.4676C119.795 33.5535 119.985 33.6393 120.264 33.7252C120.543 33.8111 120.951 33.9185 121.488 34.0473C122.368 34.2477 123.084 34.4695 123.635 34.7129C124.186 34.9562 124.59 35.2747 124.848 35.6683C125.105 36.0548 125.234 36.5808 125.234 37.2464V37.3108C125.234 38.4988 124.837 39.3791 124.043 39.9517C123.248 40.5242 122.021 40.8105 120.36 40.8105Z" fill="#009B49"/>
</svg>
